# xmcd
#
# Track frame offsets:
#	150
#	15154
#	35957
#	55120
#	77378
#	92600
#	105418
#	123600
#	138947
#	155354
#	172874
#	187692
#	204203
#
# Disc length: 3135 seconds
# Revision: 0
# Processed by: cddbd v1.5.2PL0 Copyright (c) Steve Scherf et al.
# Submitted via: dBpowerAMP V12.0
#
DISCID=8d0c3d0d
DTITLE=Rob Tognoni band - Headstrong
DYEAR=1997
DGENRE=Blues - Rock
TTITLE0=Time Changes
TTITLE1=Got Yourself To Blame
TTITLE2=Stones And Colours
TTITLE3=Roosevelt And Ira Lee
TTITLE4=Wanna Be With You
TTITLE5=Ain't That Enough
TTITLE6=Take Me Away
TTITLE7=Dark Angel
TTITLE8=Everlasting Lovin' Boy
TTITLE9=Jim Beam Blues
TTITLE10=The Riverside
TTITLE11=Keep Your Head Above Water
TTITLE12=Baby Please Don't Go
EXTD=
EXTT0=
EXTT1=
EXTT2=
EXTT3=
EXTT4=
EXTT5=
EXTT6=
EXTT7=
EXTT8=
EXTT9=
EXTT10=
EXTT11=
EXTT12=
PLAYORDER=
